<svg xmlns="http://www.w3.org/2000/svg" viewBox="0 0 24 24" id="Task-List-Sync--Streamline-Ultimate.svg"><desc>Task List Sync Streamline Icon: https://streamlinehq.com</desc><g><path d="M6 7.75a0.75 0.75 0 0 0 0 1.5h6a0.75 0.75 0 0 0 0 -1.5Z" fill="#000000" stroke-width="1"></path><path d="M9.25 19H3.5a0.5 0.5 0 0 1 -0.5 -0.5v-13a0.5 0.5 0 0 1 0.5 -0.5h11a0.5 0.5 0 0 1 0.5 0.5v4.08a0.25 0.25 0 0 0 0.3 0.25 18 18 0 0 1 2.46 -0.29 0.24 0.24 0 0 0 0.24 -0.25V3.5A1.5 1.5 0 0 0 16.5 2h-4a0.27 0.27 0 0 1 -0.21 -0.12 3.82 3.82 0 0 0 -6.58 0A0.27 0.27 0 0 1 5.5 2h-4A1.5 1.5 0 0 0 0 3.5v17A1.5 1.5 0 0 0 1.5 22h7.75a0.25 0.25 0 0 0 0.25 -0.25v-2.5a0.25 0.25 0 0 0 -0.25 -0.25Z" fill="#000000" stroke-width="1"></path><path d="M12.2 11.52c0.06 -0.06 0 -0.27 -0.2 -0.27H6a0.75 0.75 0 0 0 0 1.5h5a0.26 0.26 0 0 0 0.19 -0.1 7.48 7.48 0 0 1 1.01 -1.13Z" fill="#000000" stroke-width="1"></path><path d="M9.78 14.75H6a0.75 0.75 0 0 0 0 1.5h3.4a0.25 0.25 0 0 0 0.24 -0.2A9.14 9.14 0 0 1 9.92 15a0.14 0.14 0 0 0 -0.14 -0.25Z" fill="#000000" stroke-width="1"></path><path d="M22.77 18.6a1 1 0 0 0 -1.26 0.58 4 4 0 0 1 -1.27 1.93 4.17 4.17 0 0 1 -5.66 -0.47 0.26 0.26 0 0 1 0 -0.35l1.72 -1.71a0.51 0.51 0 0 0 0.11 -0.55 0.5 0.5 0 0 0 -0.46 -0.31H11.5a0.5 0.5 0 0 0 -0.5 0.5v4.46a0.5 0.5 0 0 0 0.31 0.46 0.47 0.47 0 0 0 0.54 -0.11l1 -1a0.23 0.23 0 0 1 0.35 0 6.09 6.09 0 0 0 10.21 -2.2 1 1 0 0 0 -0.64 -1.23Z" fill="#000000" stroke-width="1"></path><path d="M23.69 11.77a0.49 0.49 0 0 0 -0.54 0.11l-1 1a0.25 0.25 0 0 1 -0.36 0 6.09 6.09 0 0 0 -10.19 2.23 1 1 0 0 0 0.62 1.27 1 1 0 0 0 1.26 -0.59 4 4 0 0 1 1.27 -1.91 4.16 4.16 0 0 1 5.64 0.43 0.25 0.25 0 0 1 0 0.35l-1.65 1.66a0.5 0.5 0 0 0 0.35 0.85h4.41a0.5 0.5 0 0 0 0.5 -0.5v-4.44a0.5 0.5 0 0 0 -0.31 -0.46Z" fill="#000000" stroke-width="1"></path></g></svg>