<svg xmlns="http://www.w3.org/2000/svg" viewBox="0 0 2160 2160" id="Book-Close-1--Streamline-Ultimate.svg" height="2160" width="2160"><desc>Book Close 1 Streamline Icon: https://streamlinehq.com</desc><path d="M1815.3000000000002 382.5a90 90 0 0 0 -70.2 -22.5L580.5 495a90 90 0 0 1 -90 -90c0 -27.9 0 -70.2 107.1 -90C751.5 284.40000000000003 1577.7 180 1585.8000000000002 180a90 90 0 0 0 -21.599999999999998 -180C1530 5.3999999999999995 720 106.19999999999999 567.9 136.8 347.4 180 315 323.09999999999997 315 405V1800a350.1 350.1 0 0 0 360 360c9 0 1090.8 -135.9 1090.8 -135.9a90 90 0 0 0 79.2 -90V450a90 90 0 0 0 -29.700000000000003 -67.5Z" fill="#000000" stroke-width="1"></path></svg>