<svg xmlns="http://www.w3.org/2000/svg" viewBox="0 0 2160 2160" id="Pencil-Write-2-Alternate--Streamline-Ultimate.svg" height="2160" width="2160"><desc>Pencil Write 2 Alternate Streamline Icon: https://streamlinehq.com</desc><g><path d="M1800 1035a90 90 0 0 0 -90 90V1890a90 90 0 0 1 -90 90H270a90 90 0 0 1 -90 -90V360a90 90 0 0 1 90 -90h900a90 90 0 0 0 0 -180H270a270 270 0 0 0 -270 270v1530a270 270 0 0 0 270 270h1350a270 270 0 0 0 270 -270v-765a90 90 0 0 0 -90 -90Z" fill="#000000" stroke-width="1"></path><path d="M2106.9 52.199999999999996a180 180 0 0 0 -253.79999999999998 0L927.0000000000001 978.3a40.5 40.5 0 0 0 -9.9 15.3l-127.8 317.7a45.9 45.9 0 0 0 9.9 48.6 44.1 44.1 0 0 0 48.6 9.9L1170 1242.9a55.8 55.8 0 0 0 15.3 -9.9L2106.9 306.90000000000003a180 180 0 0 0 0 -254.70000000000002Z" fill="#000000" stroke-width="1"></path></g></svg>