<svg xmlns="http://www.w3.org/2000/svg" viewBox="0 0 2160 2160" id="Content-Typing-Machine-3--Streamline-Ultimate.svg" height="2160" width="2160"><desc>Content Typing Machine 3 Streamline Icon: https://streamlinehq.com</desc><g><path d="M1890 1379.7a45 45 0 0 0 -45 -29.700000000000003h-1530a45 45 0 0 0 -42.3 29.700000000000003L94.5 1890a225.89999999999998 225.89999999999998 0 0 0 220.50000000000003 270h1530a225 225 0 0 0 218.70000000000002 -275.4Zm-337.5 375.3a90 90 0 1 1 -90 -90 90 90 0 0 1 90 90Zm-382.5 0a90 90 0 1 1 -90 -90 90 90 0 0 1 90 90Zm-382.5 0a90 90 0 1 1 -90 -90 90 90 0 0 1 90 90Z" fill="#000000" stroke-width="1"></path><path d="M562.5 675a90 90 0 0 0 90 -90V202.5A22.5 22.5 0 0 1 675 180h695.7a26.099999999999998 26.099999999999998 0 0 1 16.2 6.300000000000001l114.3 114.3a26.099999999999998 26.099999999999998 0 0 1 6.300000000000001 16.2v270a90 90 0 0 0 180 0V306.90000000000003A180 180 0 0 0 1634.4 180L1507.5 53.099999999999994A180 180 0 0 0 1380.6 0H652.5a180 180 0 0 0 -180 180v405a90 90 0 0 0 90 90Z" fill="#000000" stroke-width="1"></path><path d="M180 1125h90v45a45 45 0 0 0 45 45h1530a45 45 0 0 0 45 -45v-45h90a90 90 0 0 0 0 -180h-90a225 225 0 0 0 -220.50000000000003 -180H495a225 225 0 0 0 -220.50000000000003 180H180a90 90 0 0 0 0 180Z" fill="#000000" stroke-width="1"></path></g></svg>