<svg xmlns="http://www.w3.org/2000/svg" viewBox="0 0 2160 2160" id="Messages-People-User-Information--Streamline-Ultimate.svg" height="2160" width="2160"><desc>Messages People User Information Streamline Icon: https://streamlinehq.com</desc><g><path d="M1282.5 382.5a90 90 0 1 0 180 0 90 90 0 1 0 -180 0" fill="#000000" stroke-width="1"></path><path d="M1980 0H810a180 180 0 0 0 -180 180v990a180 180 0 0 0 180 180h45v225a90 90 0 0 0 153.9 63.9l288 -288.9H1980a180 180 0 0 0 180 -180V180a180 180 0 0 0 -180 -180Zm0 1147.5a22.5 22.5 0 0 1 -22.5 22.5H1260a90 90 0 0 0 -63.9 26.099999999999998l-161.1 162V1260a90 90 0 0 0 -90 -90H832.5a22.5 22.5 0 0 1 -22.5 -22.5V202.5A22.5 22.5 0 0 1 832.5 180h1125a22.5 22.5 0 0 1 22.5 22.5Z" fill="#000000" stroke-width="1"></path><path d="M315 1170a247.5 247.5 0 1 0 -247.5 -247.5A247.5 247.5 0 0 0 315 1170 315 315 0 0 0 0 1485v180a42.3 42.3 0 0 0 13.5 31.499999999999996 42.3 42.3 0 0 0 31.499999999999996 13.5h73.8a22.5 22.5 0 0 1 22.5 20.7L180 2119.5a45 45 0 0 0 45 40.5h180a45 45 0 0 0 45 -40.5l38.7 -388.8a22.5 22.5 0 0 1 22.5 -20.7h73.8a45 45 0 0 0 45 -45v-180A315 315 0 0 0 315 1170Z" fill="#000000" stroke-width="1"></path><path d="M1277.1 1024.2h242.1a67.5 67.5 0 0 0 66.6 -68.4 66.6 66.6 0 0 0 -66.6 -66.6h-56.7V607.5A68.4 68.4 0 0 0 1395 540h-90a67.5 67.5 0 0 0 0 135h22.5v214.2h-50.400000000000006a66.6 66.6 0 0 0 -67.5 66.6 67.5 67.5 0 0 0 67.5 68.4Z" fill="#000000" stroke-width="1"></path></g></svg>