<svg id="svg" version="1.1" xmlns="http://www.w3.org/2000/svg" xmlns:xlink="http://www.w3.org/1999/xlink" width="400" height="485.89688964635707" viewBox="0, 0, 400,485.89688964635707"><g id="svgg"><path id="path0" d="M1.569 0.219 C 1.373 0.333,0.963 0.658,0.657 0.942 L 0.101 1.457 0.042 99.007 C -0.010 186.120,0.071 207.786,0.450 208.103 C 0.481 208.129,59.815 208.204,132.304 208.271 L 264.102 208.391 265.570 208.938 C 266.962 209.456,267.295 209.492,272.000 209.630 C 285.127 210.016,298.420 213.132,312.506 219.126 C 313.342 219.482,314.344 219.894,314.734 220.041 C 319.098 221.694,330.422 227.470,334.987 230.372 C 338.728 232.750,341.193 234.349,346.228 237.666 C 349.458 239.794,352.448 241.747,352.871 242.006 L 353.641 242.476 355.095 241.086 C 357.596 238.694,359.922 236.326,362.127 233.927 C 363.296 232.654,364.550 231.290,364.913 230.895 C 367.316 228.281,367.792 227.719,367.795 227.494 C 367.796 227.354,367.879 227.241,367.978 227.241 C 368.186 227.241,372.051 222.439,372.051 222.180 C 372.051 222.086,372.124 221.978,372.214 221.941 C 372.304 221.904,372.852 221.235,373.431 220.456 C 374.011 219.676,374.624 218.856,374.795 218.633 C 375.535 217.664,377.316 215.072,377.316 214.963 C 377.316 214.897,377.590 214.498,377.924 214.076 C 378.258 213.654,378.532 213.231,378.532 213.135 C 378.532 213.040,378.760 212.697,379.038 212.374 C 379.317 212.050,379.544 211.663,379.544 211.513 C 379.544 211.363,379.625 211.241,379.723 211.241 C 379.821 211.241,380.155 210.739,380.465 210.127 C 380.775 209.514,381.098 209.013,381.184 209.013 C 381.270 209.013,381.405 208.808,381.484 208.557 C 381.564 208.306,381.863 207.737,382.149 207.291 C 383.746 204.807,387.914 196.625,389.525 192.810 C 390.754 189.900,392.324 185.927,392.405 185.519 C 392.438 185.352,392.691 184.623,392.966 183.899 C 393.241 183.175,393.717 181.762,394.023 180.759 C 394.328 179.757,394.749 178.390,394.958 177.722 C 395.914 174.656,397.451 167.811,398.346 162.633 C 400.574 149.750,400.613 130.872,398.441 117.266 C 398.147 115.428,397.874 113.605,397.834 113.215 C 397.646 111.390,395.942 103.416,395.194 100.861 C 394.917 99.914,394.619 98.775,394.532 98.329 C 394.445 97.884,394.195 96.972,393.975 96.304 C 393.756 95.635,393.281 94.132,392.919 92.962 C 392.558 91.792,392.044 90.289,391.776 89.620 C 391.509 88.952,391.290 88.305,391.291 88.183 C 391.291 87.972,390.878 86.991,390.468 86.231 C 390.364 86.037,390.278 85.743,390.278 85.577 C 390.278 85.411,390.058 84.794,389.789 84.207 C 389.520 83.620,389.060 82.547,388.767 81.823 C 388.475 81.099,387.974 79.959,387.656 79.291 C 386.232 76.301,383.534 70.888,382.963 69.873 C 382.618 69.261,382.058 68.258,381.720 67.646 C 381.381 67.033,380.790 66.038,380.406 65.435 C 380.023 64.832,379.649 64.194,379.576 64.017 C 379.503 63.841,378.805 62.751,378.025 61.596 C 377.246 60.441,376.425 59.196,376.203 58.828 C 375.573 57.790,374.421 56.210,374.240 56.135 C 374.150 56.098,374.076 55.980,374.076 55.873 C 374.076 55.766,373.848 55.433,373.570 55.132 C 373.291 54.832,373.063 54.479,373.063 54.348 C 373.063 54.217,372.979 54.079,372.876 54.042 C 372.773 54.005,372.249 53.370,371.712 52.631 C 371.174 51.892,370.350 50.844,369.879 50.302 C 369.409 49.760,368.151 48.290,367.083 47.036 C 366.015 45.782,364.509 44.102,363.735 43.302 C 362.962 42.502,362.329 41.807,362.329 41.758 C 362.329 41.585,356.859 36.397,354.728 34.549 C 353.840 33.779,352.963 32.982,352.778 32.777 C 352.593 32.573,352.362 32.405,352.266 32.405 C 352.169 32.405,351.853 32.154,351.562 31.848 C 351.272 31.542,350.907 31.200,350.751 31.089 C 350.595 30.977,350.015 30.518,349.461 30.068 C 348.908 29.619,347.955 28.890,347.344 28.448 C 346.732 28.007,346.083 27.509,345.902 27.342 C 345.720 27.175,345.105 26.719,344.534 26.329 C 343.964 25.939,343.263 25.415,342.978 25.165 C 342.693 24.914,342.328 24.709,342.167 24.709 C 342.005 24.709,341.873 24.639,341.873 24.554 C 341.873 24.378,340.137 23.162,339.155 22.649 C 338.799 22.464,338.388 22.167,338.242 21.991 C 338.095 21.815,337.873 21.668,337.747 21.665 C 337.622 21.662,337.161 21.389,336.723 21.058 C 336.286 20.727,335.807 20.456,335.660 20.456 C 335.513 20.456,335.392 20.380,335.392 20.288 C 335.392 20.195,334.937 19.906,334.380 19.646 C 333.823 19.385,333.367 19.106,333.367 19.026 C 333.367 18.946,332.934 18.678,332.405 18.432 C 331.876 18.186,331.306 17.869,331.139 17.729 C 330.972 17.588,329.787 16.929,328.506 16.265 C 327.225 15.601,325.858 14.856,325.468 14.609 C 325.078 14.363,324.509 14.108,324.203 14.043 C 323.896 13.977,323.646 13.844,323.646 13.747 C 323.646 13.649,323.549 13.570,323.431 13.570 C 323.313 13.570,322.424 13.190,321.456 12.725 C 319.801 11.932,318.956 11.543,316.759 10.567 C 315.578 10.042,313.382 9.140,312.608 8.861 C 312.273 8.741,311.524 8.432,310.942 8.175 C 310.361 7.917,309.631 7.644,309.322 7.568 C 309.013 7.492,308.349 7.253,307.848 7.038 C 307.347 6.822,306.754 6.611,306.532 6.568 C 306.309 6.526,305.540 6.261,304.822 5.980 C 304.105 5.698,303.370 5.468,303.190 5.468 C 303.009 5.468,302.275 5.238,301.557 4.956 C 300.840 4.674,299.752 4.318,299.139 4.165 C 298.527 4.012,297.478 3.735,296.810 3.550 C 291.738 2.146,288.062 1.269,286.582 1.111 C 286.081 1.057,284.759 0.876,283.646 0.709 C 282.532 0.542,280.618 0.314,279.392 0.203 C 276.265 -0.081,2.057 -0.065,1.569 0.219 " stroke="none" fill="#3b83f3" fill-rule="evenodd"></path><path id="path1" d="M52.118 208.557 C 75.157 208.585,112.798 208.585,135.763 208.557 C 158.729 208.529,139.878 208.505,93.873 208.505 C 47.868 208.505,29.078 208.529,52.118 208.557 M259.091 208.550 C 259.399 208.597,259.855 208.596,260.104 208.548 C 260.353 208.500,260.101 208.461,259.544 208.463 C 258.987 208.465,258.784 208.504,259.091 208.550 M267.610 210.555 C 267.680 210.986,267.831 211.370,267.945 211.408 C 268.059 211.446,268.152 211.567,268.152 211.677 C 268.152 212.246,269.990 213.394,271.190 213.575 C 271.468 213.617,271.878 213.695,272.101 213.747 C 272.324 213.800,273.101 213.984,273.828 214.156 C 274.555 214.328,275.512 214.522,275.954 214.587 C 277.651 214.835,279.225 215.107,280.101 215.303 C 280.603 215.415,281.787 215.630,282.734 215.781 C 283.681 215.932,284.638 216.102,284.862 216.158 C 285.085 216.215,285.632 216.356,286.077 216.472 C 286.522 216.588,287.159 216.725,287.494 216.778 C 287.828 216.830,288.876 217.129,289.823 217.442 C 290.770 217.756,291.635 218.023,291.747 218.035 C 291.932 218.056,292.486 218.278,293.570 218.764 C 293.792 218.863,294.157 218.980,294.380 219.022 C 294.603 219.065,295.489 219.245,296.350 219.424 C 297.365 219.634,298.752 219.735,300.299 219.709 C 304.752 219.636,308.924 221.879,313.745 226.937 C 317.221 230.583,318.177 231.685,318.177 232.044 C 318.177 232.187,318.268 232.304,318.380 232.304 C 318.491 232.304,318.582 232.429,318.582 232.583 C 318.582 232.736,318.713 232.970,318.872 233.103 C 319.032 233.235,319.171 233.497,319.182 233.684 C 319.314 236.027,319.261 236.640,318.886 237.120 C 316.388 240.319,312.629 241.460,307.196 240.668 C 303.434 240.120,302.918 240.512,302.978 243.877 C 303.037 247.181,303.199 247.903,304.495 250.633 C 306.018 253.842,306.254 254.448,306.573 255.964 C 307.092 258.432,306.436 259.434,303.696 260.354 C 303.473 260.429,301.696 260.656,299.747 260.860 C 295.816 261.271,295.286 261.409,294.951 262.104 C 294.210 263.641,294.137 274.466,294.854 276.354 C 295.108 277.023,295.352 277.739,295.397 277.946 C 295.442 278.153,295.710 278.625,295.993 278.996 C 296.275 279.366,296.506 279.749,296.506 279.847 C 296.506 279.945,296.780 280.287,297.114 280.608 C 297.448 280.928,297.722 281.297,297.722 281.428 C 297.722 281.560,297.900 281.893,298.117 282.170 C 299.601 284.056,299.620 288.689,298.158 291.885 C 297.919 292.407,297.668 293.182,297.601 293.607 C 297.534 294.032,297.384 294.556,297.269 294.772 C 296.566 296.087,297.251 300.728,298.359 302.154 C 298.565 302.420,298.735 302.739,298.735 302.863 C 298.736 302.987,299.472 303.804,300.371 304.678 C 302.783 307.023,302.911 307.435,303.086 313.418 C 303.177 316.529,303.350 319.238,303.777 324.253 C 304.446 332.096,304.541 351.332,303.920 353.059 C 303.455 354.351,301.926 356.456,301.452 356.456 C 301.181 356.456,299.113 357.949,298.942 358.268 C 298.828 358.482,298.734 359.734,298.733 361.050 C 298.732 363.403,298.526 364.712,298.059 365.326 C 297.389 366.208,295.883 367.538,295.178 367.870 C 290.570 370.040,290.576 370.033,290.342 373.266 C 290.069 377.052,289.705 379.047,289.171 379.696 C 289.057 379.835,289.022 379.949,289.094 379.949 C 289.433 379.949,288.031 382.128,286.915 383.335 C 286.326 383.973,286.319 384.003,286.612 384.753 C 287.632 387.364,286.701 389.818,283.368 393.305 C 282.669 394.037,282.078 394.863,281.767 395.544 C 281.589 395.934,281.175 396.839,280.846 397.555 C 280.313 398.717,280.250 399.066,280.259 400.796 C 280.281 404.876,279.363 405.799,274.926 406.153 C 272.124 406.376,271.420 408.428,273.109 411.448 C 274.025 413.085,274.311 414.542,274.030 416.130 C 273.749 417.718,273.816 417.539,272.910 419.139 C 272.033 420.688,272.040 420.625,272.171 425.765 C 272.265 429.436,271.056 432.146,268.550 433.880 C 266.735 435.136,266.884 435.097,261.165 435.866 C 259.644 436.071,257.902 436.554,256.506 437.158 C 256.172 437.302,255.580 437.537,255.190 437.679 C 254.560 437.909,253.886 438.184,252.152 438.921 C 251.873 439.039,251.472 439.226,251.260 439.336 C 251.048 439.446,250.683 439.561,250.450 439.591 C 248.346 439.862,246.494 441.298,246.072 442.983 C 245.778 444.159,245.020 446.066,244.702 446.430 C 244.532 446.625,244.452 446.785,244.524 446.785 C 244.915 446.785,241.908 449.842,241.050 450.317 C 239.943 450.930,239.080 451.324,238.780 451.353 C 236.720 451.553,235.599 453.697,236.883 454.981 C 237.054 455.152,237.138 455.291,237.070 455.291 C 236.908 455.291,237.753 456.197,237.936 456.220 C 238.013 456.229,238.304 456.333,238.582 456.451 C 238.861 456.569,239.499 456.831,240.000 457.032 C 240.501 457.234,241.088 457.562,241.304 457.763 C 241.520 457.963,241.772 458.127,241.864 458.127 C 242.186 458.127,243.984 460.094,244.491 461.002 C 245.874 463.476,245.031 466.906,242.411 469.466 C 240.802 471.038,240.881 471.548,242.887 472.562 C 246.238 474.254,249.928 474.223,251.752 472.487 C 251.916 472.331,252.442 471.937,252.920 471.612 C 253.398 471.287,253.854 470.910,253.933 470.773 C 254.409 469.947,257.018 469.022,257.951 469.348 C 258.564 469.562,260.285 470.886,259.951 470.886 C 259.860 470.886,259.933 471.049,260.113 471.248 C 260.293 471.447,260.581 471.946,260.753 472.358 C 261.350 473.786,262.997 474.121,269.458 474.127 C 273.061 474.131,273.586 474.019,278.481 472.211 C 279.873 471.696,281.172 471.238,281.368 471.193 C 281.563 471.148,281.814 471.056,281.924 470.987 C 282.035 470.919,283.014 470.545,284.101 470.156 C 287.952 468.777,288.716 468.497,289.316 468.243 C 289.651 468.103,290.015 467.974,290.127 467.958 C 290.585 467.890,291.558 467.580,291.747 467.441 C 291.858 467.359,292.724 467.049,293.671 466.751 C 294.618 466.454,295.529 466.163,295.696 466.105 C 295.863 466.047,296.046 465.988,296.101 465.974 C 298.510 465.374,301.183 464.364,303.847 463.046 C 307.109 461.433,309.133 460.483,309.367 460.455 C 309.478 460.442,310.116 460.265,310.785 460.062 C 311.453 459.860,312.927 459.632,314.060 459.557 C 315.898 459.434,316.209 459.356,316.956 458.824 C 318.071 458.030,318.495 457.763,320.132 456.828 C 320.895 456.392,321.565 455.975,321.620 455.903 C 321.676 455.830,322.246 455.474,322.886 455.111 C 323.527 454.748,324.051 454.378,324.051 454.288 C 324.051 454.198,324.314 454.016,324.637 453.882 C 324.959 453.749,325.415 453.461,325.650 453.242 C 325.884 453.024,326.077 452.917,326.079 453.005 C 326.081 453.093,326.149 453.073,326.231 452.962 C 326.461 452.649,327.654 451.848,327.891 451.848 C 328.006 451.848,328.101 451.757,328.101 451.646 C 328.101 451.534,328.186 451.443,328.289 451.443 C 328.544 451.443,331.001 449.989,331.187 449.728 C 331.269 449.613,331.337 449.595,331.339 449.687 C 331.340 449.780,331.638 449.677,332.000 449.458 C 333.261 448.696,336.506 447.114,340.855 445.142 C 342.271 444.500,344.231 443.525,347.342 441.916 C 348.066 441.541,349.433 440.733,350.380 440.119 C 351.327 439.506,352.329 438.880,352.608 438.729 C 352.886 438.578,353.296 438.288,353.519 438.085 C 354.835 436.885,357.848 435.999,360.304 436.089 L 362.025 436.152 361.961 436.759 C 361.888 437.454,361.018 439.530,360.458 440.350 C 359.961 441.076,359.847 441.558,359.798 443.129 C 359.771 444.020,359.670 444.464,359.483 444.527 C 359.001 444.687,358.433 445.328,358.573 445.554 C 358.647 445.674,358.565 445.772,358.391 445.772 C 358.039 445.772,355.646 448.019,355.646 448.350 C 355.646 448.474,354.673 448.619,353.266 448.706 C 349.374 448.945,348.966 449.314,348.900 452.649 C 348.878 453.745,348.795 454.602,348.715 454.553 C 348.481 454.411,347.403 455.042,347.265 455.401 C 347.042 455.983,347.126 456.133,347.595 455.990 C 348.261 455.787,348.749 455.296,348.620 454.960 C 348.558 454.799,348.587 454.687,348.684 454.711 C 349.018 454.793,349.962 454.219,349.834 454.012 C 349.755 453.884,349.842 453.857,350.061 453.941 C 350.315 454.038,350.448 453.961,350.523 453.672 C 350.615 453.320,350.794 453.230,351.304 453.276 C 351.367 453.282,351.606 453.049,351.834 452.759 C 352.062 452.469,352.290 452.273,352.340 452.323 C 352.482 452.465,354.430 450.361,354.430 450.064 C 354.430 449.918,354.515 449.851,354.618 449.915 C 354.722 449.979,354.836 449.825,354.872 449.573 C 354.907 449.320,354.986 449.159,355.046 449.215 C 355.106 449.271,355.429 449.037,355.763 448.695 C 356.097 448.353,356.478 448.109,356.608 448.152 C 356.739 448.196,356.905 447.997,356.977 447.711 C 357.048 447.424,357.217 447.190,357.350 447.190 C 357.484 447.190,357.770 447.046,357.987 446.871 C 358.203 446.696,358.267 446.609,358.129 446.679 C 357.962 446.763,357.920 446.698,358.002 446.483 C 358.070 446.305,358.166 446.200,358.215 446.249 C 358.345 446.379,359.799 444.941,360.079 444.405 C 360.211 444.154,360.457 443.949,360.627 443.949 C 360.796 443.949,360.879 443.858,360.810 443.747 C 360.741 443.635,360.850 443.543,361.051 443.541 C 361.362 443.539,361.372 443.508,361.114 443.342 C 360.862 443.179,360.880 443.145,361.217 443.142 C 361.441 443.141,361.743 442.948,361.889 442.714 C 362.035 442.481,362.202 442.337,362.259 442.394 C 362.418 442.553,363.139 441.872,363.139 441.563 C 363.139 441.414,363.228 441.347,363.336 441.414 C 363.444 441.481,363.589 441.310,363.658 441.034 C 363.731 440.745,363.892 440.575,364.039 440.631 C 364.182 440.686,364.429 440.451,364.600 440.098 C 364.768 439.750,364.949 439.495,365.003 439.531 C 365.056 439.566,365.427 439.258,365.826 438.847 C 366.268 438.392,366.459 438.062,366.314 438.003 C 366.175 437.946,366.209 437.899,366.394 437.889 C 366.767 437.871,367.614 436.952,367.694 436.480 C 367.725 436.299,367.843 436.172,367.957 436.196 C 368.141 436.235,369.286 434.929,369.189 434.790 C 369.152 434.736,369.996 433.791,371.265 432.466 C 371.635 432.080,371.824 431.720,371.734 431.574 C 371.642 431.425,371.668 431.382,371.802 431.465 C 371.923 431.540,372.077 431.426,372.145 431.212 C 372.213 430.997,372.402 430.771,372.565 430.709 C 372.728 430.646,372.861 430.455,372.861 430.285 C 372.861 430.114,372.957 429.975,373.075 429.975 C 373.193 429.975,373.225 429.869,373.145 429.741 C 373.064 429.609,373.089 429.562,373.202 429.632 C 373.415 429.763,374.278 428.733,374.278 428.348 C 374.278 428.068,374.801 427.527,374.939 427.665 C 374.994 427.720,375.098 427.534,375.169 427.250 C 375.241 426.966,375.388 426.734,375.498 426.734 C 375.607 426.734,375.696 426.602,375.696 426.440 C 375.696 426.279,375.856 426.054,376.051 425.940 C 376.246 425.827,376.346 425.731,376.273 425.728 C 376.201 425.724,376.410 425.434,376.738 425.082 C 377.067 424.731,377.287 424.316,377.227 424.160 C 377.167 424.005,377.195 423.925,377.288 423.983 C 377.382 424.040,377.578 423.863,377.725 423.588 C 377.872 423.313,378.074 423.089,378.173 423.089 C 378.272 423.089,378.297 422.997,378.228 422.886 C 378.159 422.775,378.196 422.684,378.311 422.684 C 378.425 422.684,378.469 422.554,378.408 422.395 C 378.345 422.230,378.477 422.011,378.718 421.882 C 378.950 421.758,379.139 421.562,379.139 421.447 C 379.139 421.331,379.253 421.110,379.392 420.955 C 380.004 420.272,380.120 420.086,380.005 419.971 C 379.937 419.903,380.003 419.848,380.152 419.848 C 380.300 419.848,380.367 419.793,380.299 419.725 C 380.232 419.658,380.355 419.410,380.574 419.175 C 380.793 418.941,380.932 418.645,380.884 418.520 C 380.836 418.394,380.965 418.169,381.172 418.020 C 381.379 417.871,381.502 417.674,381.446 417.583 C 381.389 417.492,381.423 417.418,381.520 417.418 C 381.736 417.418,382.582 415.870,382.582 415.475 C 382.582 415.318,382.675 415.190,382.788 415.190 C 383.113 415.190,383.777 413.957,383.647 413.594 C 383.583 413.413,383.603 413.332,383.692 413.412 C 383.911 413.610,384.655 412.191,384.481 411.908 C 384.397 411.773,384.435 411.742,384.576 411.829 C 384.705 411.908,384.817 411.900,384.826 411.809 C 384.881 411.224,385.018 410.856,385.228 410.726 C 385.361 410.644,385.407 410.476,385.330 410.352 C 385.250 410.222,385.330 410.127,385.519 410.127 C 385.699 410.127,385.794 410.042,385.730 409.938 C 385.666 409.834,385.706 409.693,385.818 409.623 C 386.160 409.412,386.528 408.627,386.197 408.815 C 386.047 408.901,386.124 408.776,386.369 408.539 C 386.615 408.299,386.780 407.932,386.738 407.715 C 386.696 407.498,386.797 407.271,386.964 407.207 C 387.130 407.144,387.209 407.000,387.140 406.888 C 387.071 406.775,387.096 406.684,387.196 406.684 C 387.515 406.684,387.863 405.712,387.584 405.599 C 387.406 405.526,387.410 405.496,387.600 405.484 C 387.821 405.471,388.342 404.504,388.250 404.276 C 388.233 404.233,388.322 404.133,388.448 404.055 C 388.574 403.977,388.708 403.648,388.746 403.324 C 388.784 403.000,388.825 402.660,388.838 402.570 C 388.850 402.480,388.952 402.463,389.063 402.532 C 389.175 402.600,389.269 402.492,389.272 402.290 C 389.276 402.089,389.410 401.751,389.570 401.540 C 389.730 401.328,389.812 401.078,389.754 400.983 C 389.695 400.888,389.759 400.810,389.895 400.810 C 390.032 400.810,390.083 400.750,390.010 400.677 C 389.937 400.604,389.990 400.404,390.128 400.233 C 390.333 399.980,390.328 399.953,390.106 400.087 C 389.912 400.204,389.927 400.106,390.157 399.756 C 390.336 399.482,390.421 399.198,390.347 399.123 C 390.272 399.048,390.327 398.987,390.469 398.987 C 390.619 398.987,390.676 398.856,390.606 398.673 C 390.539 398.498,390.572 398.412,390.680 398.479 C 390.787 398.545,390.922 398.367,390.981 398.084 C 391.040 397.801,391.150 397.319,391.224 397.013 C 391.298 396.706,391.370 396.410,391.383 396.354 C 391.396 396.299,391.514 396.060,391.646 395.824 C 391.777 395.588,391.827 395.337,391.757 395.267 C 391.686 395.197,391.735 395.139,391.865 395.139 C 391.995 395.139,392.101 394.911,392.101 394.633 C 392.101 394.354,392.194 394.127,392.308 394.127 C 392.421 394.127,392.473 393.899,392.422 393.620 C 392.372 393.342,392.421 393.114,392.532 393.114 C 392.642 393.114,392.676 393.023,392.608 392.911 C 392.539 392.800,392.590 392.709,392.721 392.709 C 392.864 392.709,392.921 392.512,392.864 392.213 C 392.807 391.917,392.859 391.733,392.992 391.757 C 393.115 391.779,393.224 391.661,393.235 391.494 C 393.246 391.327,393.322 391.035,393.405 390.845 C 393.487 390.656,393.496 390.405,393.424 390.288 C 393.352 390.171,393.404 390.076,393.541 390.076 C 393.677 390.076,393.732 390.019,393.662 389.949 C 393.592 389.879,393.665 389.572,393.823 389.266 C 393.981 388.960,394.067 388.666,394.015 388.614 C 393.962 388.561,394.058 388.183,394.229 387.775 C 394.400 387.366,394.561 386.669,394.586 386.225 C 394.612 385.781,394.711 385.418,394.806 385.418 C 394.902 385.418,394.928 385.281,394.863 385.114 C 394.799 384.947,394.825 384.810,394.919 384.810 C 395.175 384.810,395.335 384.020,395.108 383.879 C 394.999 383.812,395.067 383.646,395.261 383.504 C 395.470 383.351,395.559 383.115,395.482 382.915 C 395.412 382.732,395.428 382.582,395.518 382.582 C 395.608 382.582,395.665 382.309,395.646 381.975 C 395.626 381.641,395.675 381.367,395.756 381.367 C 395.836 381.367,395.945 381.142,395.998 380.867 C 396.050 380.592,396.015 380.415,395.920 380.474 C 395.825 380.533,395.747 380.484,395.747 380.366 C 395.747 380.248,395.843 380.152,395.961 380.152 C 396.079 380.152,396.119 380.061,396.051 379.949 C 395.982 379.838,396.016 379.747,396.127 379.747 C 396.238 379.747,396.326 379.587,396.323 379.392 C 396.319 379.197,396.383 378.810,396.465 378.532 C 396.547 378.253,396.636 377.752,396.664 377.418 C 396.691 377.084,396.766 376.673,396.831 376.506 C 397.250 375.417,397.522 373.553,397.301 373.279 C 397.119 373.054,397.119 373.019,397.302 373.129 C 397.602 373.309,397.781 372.755,397.684 371.949 C 397.643 371.615,397.703 371.229,397.815 371.091 C 397.928 370.953,397.971 370.714,397.912 370.559 C 397.852 370.404,397.877 370.198,397.966 370.101 C 398.279 369.760,398.434 368.348,398.139 368.525 C 397.931 368.651,397.924 368.622,398.108 368.393 C 398.236 368.233,398.389 367.828,398.447 367.494 C 398.504 367.159,398.618 366.576,398.700 366.196 C 398.817 365.649,398.792 365.541,398.579 365.673 C 398.410 365.777,398.437 365.658,398.649 365.356 C 399.050 364.782,399.101 364.262,398.734 364.483 C 398.538 364.600,398.534 364.568,398.715 364.343 C 398.844 364.182,398.923 363.754,398.892 363.392 C 398.860 363.030,398.904 362.734,398.988 362.734 C 399.073 362.734,399.127 362.195,399.110 361.535 C 399.092 360.875,399.151 360.381,399.239 360.436 C 399.328 360.491,399.392 360.278,399.382 359.964 C 399.371 359.650,399.422 359.086,399.494 358.713 C 399.584 358.250,399.556 358.076,399.408 358.168 C 399.142 358.332,399.118 358.029,399.376 357.762 C 399.672 357.457,399.791 355.680,399.523 355.570 C 399.359 355.503,399.363 355.470,399.538 355.459 C 399.674 355.450,399.732 355.306,399.668 355.139 C 399.604 354.972,399.640 354.835,399.748 354.835 C 399.999 354.835,400.025 337.001,399.774 336.689 C 399.676 336.566,399.629 336.179,399.670 335.828 C 399.711 335.477,399.665 335.190,399.568 335.190 C 399.472 335.190,399.392 335.093,399.392 334.975 C 399.392 334.857,399.475 334.812,399.576 334.874 C 399.795 335.010,399.616 334.178,399.353 333.841 C 399.241 333.697,399.253 333.555,399.383 333.474 C 399.683 333.289,399.644 332.554,399.298 331.892 C 399.137 331.582,399.092 331.382,399.198 331.448 C 399.305 331.514,399.392 331.472,399.392 331.354 C 399.392 331.236,399.324 331.139,399.241 331.139 C 399.098 331.139,399.067 330.787,398.979 328.203 C 398.961 327.646,398.819 326.946,398.665 326.649 C 398.448 326.228,398.441 326.088,398.636 326.020 C 398.818 325.956,398.793 325.827,398.542 325.544 C 398.316 325.288,398.259 325.057,398.376 324.867 C 398.474 324.709,398.482 324.437,398.393 324.264 C 398.304 324.091,398.273 323.835,398.323 323.696 C 398.373 323.557,398.334 323.443,398.237 323.443 C 398.141 323.443,398.049 323.284,398.034 323.089 C 398.018 322.894,397.985 322.435,397.959 322.069 C 397.934 321.703,397.850 321.365,397.773 321.317 C 397.697 321.270,397.654 320.931,397.678 320.565 C 397.702 320.198,397.658 319.808,397.580 319.696 C 397.456 319.518,397.405 319.228,397.321 318.228 C 397.309 318.089,397.239 317.975,397.165 317.975 C 397.034 317.975,396.968 317.652,396.946 316.915 C 396.941 316.723,396.849 316.511,396.743 316.446 C 396.637 316.380,396.598 316.249,396.656 316.155 C 396.715 316.061,396.657 315.725,396.529 315.409 C 396.400 315.094,396.316 314.580,396.341 314.268 C 396.366 313.956,396.285 313.579,396.161 313.429 C 396.037 313.279,395.953 313.079,395.975 312.983 C 396.048 312.672,395.690 311.598,395.462 311.446 C 395.311 311.345,395.323 311.296,395.501 311.294 C 395.698 311.292,395.709 311.193,395.544 310.886 C 395.425 310.663,395.394 310.481,395.475 310.481 C 395.556 310.481,395.445 310.347,395.229 310.184 C 394.973 309.990,394.931 309.884,395.109 309.880 C 395.314 309.875,395.285 309.709,394.989 309.208 C 394.773 308.842,394.619 308.386,394.647 308.195 C 394.675 308.004,394.618 307.848,394.520 307.848 C 394.422 307.848,394.394 307.711,394.458 307.544 C 394.523 307.377,394.487 307.241,394.379 307.241 C 394.271 307.241,394.226 307.013,394.280 306.734 C 394.338 306.426,394.283 306.228,394.138 306.228 C 394.007 306.228,393.956 306.137,394.025 306.025 C 394.094 305.914,394.049 305.823,393.924 305.823 C 393.800 305.823,393.750 305.738,393.814 305.634 C 393.878 305.531,393.844 305.392,393.738 305.326 C 393.632 305.261,393.538 305.050,393.530 304.857 C 393.491 303.945,393.419 303.595,393.273 303.595 C 393.186 303.595,393.125 303.527,393.138 303.443 C 393.151 303.359,393.140 303.223,393.113 303.139 C 393.014 302.834,392.961 302.575,392.937 302.267 C 392.922 302.080,392.815 302.011,392.674 302.097 C 392.515 302.196,392.480 302.133,392.567 301.907 C 392.638 301.720,392.598 301.570,392.476 301.570 C 392.355 301.570,392.304 301.387,392.362 301.165 C 392.421 300.942,392.380 300.759,392.273 300.759 C 392.165 300.759,392.134 300.669,392.202 300.557 C 392.271 300.446,392.195 300.104,392.035 299.798 C 391.727 299.212,391.247 298.132,391.179 297.873 C 391.157 297.790,391.116 297.676,391.089 297.620 C 391.061 297.565,391.019 297.451,390.996 297.367 C 390.972 297.284,390.832 296.942,390.684 296.608 C 390.535 296.273,390.395 295.932,390.371 295.848 C 390.348 295.765,390.306 295.651,390.278 295.595 C 390.251 295.539,390.215 295.425,390.199 295.342 C 390.184 295.258,390.099 295.076,390.010 294.937 C 389.922 294.797,389.907 294.684,389.977 294.684 C 390.047 294.684,389.961 294.539,389.785 294.363 C 389.609 294.187,389.513 293.966,389.571 293.871 C 389.630 293.776,389.585 293.642,389.472 293.572 C 389.358 293.502,389.266 293.268,389.266 293.051 C 389.266 292.835,389.181 292.658,389.077 292.658 C 388.973 292.658,388.832 292.453,388.764 292.203 C 388.562 291.465,387.562 289.329,387.342 289.168 C 387.230 289.086,387.222 289.017,387.323 289.016 C 387.423 289.014,387.341 288.830,387.139 288.608 C 386.938 288.385,386.834 288.203,386.910 288.203 C 386.986 288.203,386.898 287.975,386.716 287.696 C 386.533 287.418,386.463 287.188,386.559 287.187 C 386.655 287.185,386.638 287.117,386.521 287.035 C 386.404 286.953,386.168 286.522,385.997 286.076 C 385.826 285.630,385.580 285.289,385.450 285.316 C 385.321 285.344,385.215 285.192,385.215 284.979 C 385.215 284.375,384.992 283.938,384.758 284.083 C 384.641 284.155,384.597 284.131,384.659 284.029 C 384.819 283.771,384.271 282.532,383.998 282.532 C 383.874 282.532,383.826 282.447,383.890 282.343 C 383.954 282.239,383.912 282.096,383.797 282.025 C 383.682 281.954,383.635 281.821,383.692 281.729 C 383.749 281.637,383.653 281.507,383.480 281.440 C 383.306 281.374,383.215 281.237,383.277 281.137 C 383.339 281.036,383.254 280.902,383.087 280.838 C 382.921 280.774,382.785 280.582,382.785 280.411 C 382.785 280.241,382.671 280.100,382.532 280.098 C 382.363 280.096,382.380 280.030,382.582 279.899 C 382.840 279.732,382.830 279.702,382.520 279.699 C 382.318 279.698,382.206 279.611,382.271 279.506 C 382.335 279.402,382.241 279.234,382.062 279.133 C 381.883 279.033,381.753 278.887,381.775 278.809 C 381.857 278.512,381.251 277.330,380.525 276.367 C 380.110 275.817,379.816 275.293,379.872 275.202 C 379.928 275.112,379.851 275.038,379.701 275.038 C 379.551 275.038,379.413 274.840,379.395 274.597 C 379.377 274.355,379.129 273.957,378.845 273.713 C 378.561 273.469,378.329 273.085,378.329 272.859 C 378.329 272.633,378.179 272.391,377.996 272.321 C 377.813 272.250,377.717 272.140,377.782 272.075 C 377.904 271.953,377.700 271.657,377.024 270.977 C 376.808 270.759,376.610 270.437,376.584 270.260 C 376.521 269.832,375.488 268.354,375.252 268.354 C 375.149 268.354,375.115 268.273,375.177 268.173 C 375.238 268.073,375.147 267.937,374.973 267.871 C 374.800 267.804,374.715 267.658,374.784 267.546 C 374.853 267.434,374.812 267.342,374.691 267.342 C 374.571 267.342,374.370 267.117,374.245 266.842 C 374.119 266.567,373.940 266.389,373.846 266.447 C 373.752 266.505,373.726 266.421,373.788 266.259 C 373.850 266.098,373.735 265.842,373.533 265.690 C 373.015 265.302,372.278 264.393,372.658 264.612 C 372.920 264.763,372.924 264.739,372.684 264.444 C 372.531 264.255,372.275 264.101,372.115 264.101 C 371.955 264.101,371.877 264.015,371.942 263.910 C 372.007 263.805,371.735 263.394,371.337 262.996 C 370.939 262.598,370.668 262.182,370.736 262.073 C 370.804 261.963,370.777 261.873,370.677 261.873 C 370.577 261.873,370.395 261.653,370.273 261.385 C 370.150 261.116,369.862 260.836,369.633 260.763 C 369.401 260.690,369.215 260.457,369.215 260.240 C 369.215 260.020,369.076 259.848,368.899 259.848 C 368.726 259.848,368.640 259.757,368.709 259.646 C 368.778 259.534,368.732 259.443,368.608 259.443 C 368.483 259.443,368.447 259.336,368.528 259.206 C 368.627 259.045,368.562 259.012,368.327 259.103 C 368.120 259.182,368.029 259.155,368.103 259.036 C 368.171 258.926,368.130 258.835,368.012 258.835 C 367.894 258.835,367.820 258.764,367.848 258.676 C 367.876 258.588,367.671 258.281,367.392 257.993 C 367.114 257.704,366.715 257.231,366.506 256.941 C 366.297 256.650,366.044 256.463,365.944 256.525 C 365.844 256.587,365.775 256.563,365.791 256.471 C 365.807 256.379,365.809 256.197,365.796 256.067 C 365.762 255.729,364.119 254.064,363.889 254.135 C 363.783 254.167,363.752 254.051,363.819 253.876 C 363.900 253.665,363.777 253.482,363.455 253.336 C 363.157 253.200,363.012 253.001,363.080 252.823 C 363.150 252.642,363.030 252.491,362.760 252.420 C 362.523 252.358,362.329 252.198,362.329 252.064 C 362.329 251.733,361.389 250.935,361.200 251.105 C 361.117 251.180,361.104 251.144,361.171 251.026 C 361.238 250.907,360.797 250.273,360.191 249.617 C 359.585 248.960,359.087 248.510,359.086 248.617 C 359.084 248.723,358.963 248.582,358.816 248.304 C 358.669 248.025,358.443 247.820,358.313 247.848 C 358.182 247.876,358.099 247.785,358.127 247.646 C 358.154 247.506,358.072 247.412,357.943 247.437 C 357.815 247.461,357.587 247.329,357.437 247.145 C 357.204 246.857,357.208 246.833,357.468 246.982 C 357.635 247.078,357.499 246.880,357.165 246.542 C 356.830 246.205,356.511 245.927,356.456 245.925 C 355.973 245.908,355.841 245.846,355.941 245.684 C 356.005 245.581,355.785 245.335,355.452 245.138 C 355.119 244.941,354.758 244.525,354.649 244.213 C 354.540 243.901,354.351 243.646,354.228 243.646 C 354.105 243.646,353.909 243.372,353.792 243.038 C 353.676 242.704,353.501 242.430,353.403 242.430 C 353.305 242.430,350.921 240.911,348.106 239.053 C 332.443 228.719,328.487 226.409,319.291 222.228 C 300.934 213.883,286.952 210.158,272.931 209.880 L 267.483 209.771 267.610 210.555 M0.100 286.177 C 0.100 324.886,0.123 340.722,0.152 321.367 C 0.180 302.013,0.180 270.342,0.152 250.987 C 0.123 231.633,0.100 247.468,0.100 286.177 M263.940 421.234 C 263.688 421.956,264.562 422.526,264.914 421.869 C 265.212 421.312,265.164 421.151,264.623 420.905 C 264.183 420.704,264.113 420.738,263.940 421.234 M0.063 480.709 C 0.064 481.377,0.102 481.626,0.147 481.262 C 0.192 480.898,0.191 480.351,0.145 480.047 C 0.099 479.743,0.062 480.041,0.063 480.709 M21.722 486.025 C 23.030 486.060,25.172 486.060,26.481 486.025 C 27.790 485.989,26.719 485.961,24.101 485.961 C 21.484 485.961,20.413 485.989,21.722 486.025 M100.117 486.025 C 109.232 486.054,124.088 486.054,133.130 486.025 C 142.172 485.996,134.714 485.972,116.557 485.972 C 98.400 485.972,91.002 485.996,100.117 486.025 " stroke="none" fill="#2454d4" fill-rule="evenodd"></path><path id="path2" d="M0.312 209.316 C 0.150 210.584,0.084 482.843,0.245 483.701 C 0.457 484.836,1.022 485.660,1.718 485.852 C 2.617 486.099,259.996 485.912,265.114 485.660 C 267.397 485.548,270.177 485.369,271.291 485.262 C 272.405 485.155,274.091 485.019,275.038 484.959 C 276.666 484.856,277.661 484.750,278.937 484.545 C 279.828 484.402,280.497 484.306,282.329 484.061 C 284.586 483.758,286.338 483.471,288.203 483.099 C 289.956 482.748,290.026 482.735,291.241 482.517 C 292.292 482.328,292.126 482.367,293.165 482.068 C 293.610 481.940,294.425 481.781,294.976 481.716 C 295.526 481.650,296.073 481.536,296.191 481.462 C 296.309 481.388,296.496 481.312,296.608 481.294 C 296.719 481.275,297.403 481.104,298.127 480.913 C 298.851 480.723,299.623 480.532,299.843 480.489 C 300.063 480.446,300.811 480.227,301.506 480.003 C 302.200 479.778,302.932 479.569,303.131 479.538 C 303.330 479.507,303.608 479.411,303.747 479.324 C 303.886 479.237,304.000 479.228,304.000 479.304 C 304.000 479.380,304.117 479.345,304.259 479.227 C 304.402 479.108,304.775 478.965,305.087 478.908 C 305.400 478.852,305.783 478.699,305.939 478.570 C 306.095 478.440,306.349 478.383,306.504 478.443 C 306.659 478.502,306.888 478.448,307.013 478.323 C 307.138 478.198,307.241 478.162,307.241 478.242 C 307.241 478.322,307.582 478.214,308.000 478.001 C 308.418 477.788,309.215 477.471,309.772 477.297 C 311.082 476.886,313.199 476.096,314.228 475.634 C 314.673 475.434,315.129 475.250,315.241 475.226 C 315.878 475.087,316.061 475.027,316.152 474.926 C 316.271 474.794,317.682 474.127,317.841 474.127 C 317.973 474.127,321.370 472.588,321.871 472.302 C 322.064 472.192,322.349 472.101,322.504 472.101 C 322.659 472.101,322.897 471.967,323.033 471.804 C 323.168 471.640,323.339 471.524,323.412 471.545 C 323.485 471.566,323.784 471.424,324.076 471.228 C 324.369 471.033,324.804 470.835,325.043 470.789 C 325.283 470.743,325.717 470.518,326.007 470.289 C 326.298 470.060,326.660 469.873,326.812 469.873 C 326.964 469.873,327.089 469.782,327.089 469.671 C 327.089 469.559,327.157 469.489,327.241 469.513 C 327.324 469.538,327.620 469.412,327.899 469.233 C 328.488 468.855,329.330 468.405,330.329 467.934 C 330.719 467.750,331.084 467.535,331.139 467.456 C 331.195 467.377,331.377 467.247,331.544 467.167 C 332.104 466.900,333.801 465.815,333.975 465.613 C 334.030 465.549,334.372 465.376,334.734 465.230 C 335.096 465.083,335.392 464.883,335.392 464.786 C 335.392 464.688,335.529 464.608,335.696 464.608 C 335.863 464.608,336.000 464.516,336.000 464.405 C 336.000 464.294,336.095 464.203,336.211 464.203 C 336.327 464.203,336.532 464.110,336.667 463.997 C 337.607 463.207,338.860 462.380,339.117 462.380 C 339.285 462.380,339.496 462.259,339.585 462.112 C 339.674 461.964,340.062 461.622,340.448 461.352 C 340.834 461.082,341.329 460.701,341.550 460.506 C 341.770 460.311,342.027 460.152,342.121 460.152 C 342.215 460.152,342.542 459.901,342.848 459.595 C 343.153 459.289,343.663 458.856,343.981 458.633 C 344.299 458.410,344.945 457.909,345.415 457.519 C 345.886 457.129,346.457 456.682,346.686 456.526 C 346.914 456.370,347.152 455.986,347.215 455.674 C 347.286 455.315,347.551 454.991,347.933 454.794 C 348.700 454.397,348.775 454.401,348.620 454.835 C 348.550 455.030,348.556 455.133,348.634 455.063 C 348.713 454.994,348.814 453.972,348.860 452.793 C 348.997 449.280,349.357 448.946,353.266 448.706 C 354.673 448.619,355.646 448.474,355.646 448.350 C 355.646 448.019,358.039 445.772,358.391 445.772 C 358.565 445.772,358.647 445.674,358.573 445.554 C 358.433 445.328,359.001 444.687,359.483 444.527 C 359.670 444.464,359.771 444.020,359.798 443.129 C 359.847 441.558,359.961 441.076,360.458 440.350 C 361.018 439.530,361.888 437.454,361.961 436.759 L 362.025 436.152 360.304 436.089 C 357.848 435.999,354.835 436.885,353.519 438.085 C 353.296 438.288,352.886 438.578,352.608 438.729 C 352.329 438.880,351.327 439.506,350.380 440.119 C 349.433 440.733,348.066 441.541,347.342 441.916 C 344.231 443.525,342.271 444.500,340.855 445.142 C 336.506 447.114,333.261 448.696,332.000 449.458 C 331.638 449.677,331.340 449.780,331.339 449.687 C 331.337 449.595,331.269 449.613,331.187 449.728 C 331.001 449.989,328.544 451.443,328.289 451.443 C 328.186 451.443,328.101 451.534,328.101 451.646 C 328.101 451.757,328.006 451.848,327.891 451.848 C 327.654 451.848,326.461 452.649,326.231 452.962 C 326.149 453.073,326.081 453.093,326.079 453.005 C 326.077 452.917,325.884 453.024,325.650 453.242 C 325.415 453.461,324.959 453.749,324.637 453.882 C 324.314 454.016,324.051 454.198,324.051 454.288 C 324.051 454.378,323.527 454.748,322.886 455.111 C 322.246 455.474,321.676 455.830,321.620 455.903 C 321.565 455.975,320.895 456.392,320.132 456.828 C 318.495 457.763,318.071 458.030,316.956 458.824 C 316.209 459.356,315.898 459.434,314.060 459.557 C 312.927 459.632,311.453 459.860,310.785 460.062 C 310.116 460.265,309.478 460.442,309.367 460.455 C 309.133 460.483,307.109 461.433,303.847 463.046 C 301.347 464.282,300.071 464.790,297.620 465.523 C 296.729 465.790,295.954 466.023,295.899 466.042 C 295.631 466.134,295.266 466.250,293.671 466.751 C 292.724 467.049,291.858 467.359,291.747 467.441 C 291.558 467.580,290.585 467.890,290.127 467.958 C 290.015 467.974,289.651 468.103,289.316 468.243 C 288.716 468.497,287.952 468.777,284.101 470.156 C 283.014 470.545,282.035 470.919,281.924 470.987 C 281.814 471.056,281.563 471.148,281.368 471.193 C 281.172 471.238,279.873 471.696,278.481 472.211 C 273.586 474.019,273.061 474.131,269.458 474.127 C 262.997 474.121,261.350 473.786,260.753 472.358 C 260.581 471.946,260.293 471.447,260.113 471.248 C 259.933 471.049,259.860 470.886,259.951 470.886 C 260.285 470.886,258.564 469.562,257.951 469.348 C 257.018 469.022,254.409 469.947,253.933 470.773 C 253.854 470.910,253.398 471.287,252.920 471.612 C 252.442 471.937,251.916 472.331,251.752 472.487 C 249.928 474.223,246.238 474.254,242.887 472.562 C 240.881 471.548,240.802 471.038,242.411 469.466 C 245.031 466.906,245.874 463.476,244.491 461.002 C 243.984 460.094,242.186 458.127,241.864 458.127 C 241.772 458.127,241.520 457.963,241.304 457.763 C 241.088 457.562,240.501 457.234,240.000 457.032 C 239.499 456.831,238.861 456.569,238.582 456.451 C 238.304 456.333,238.013 456.229,237.936 456.220 C 237.753 456.197,236.908 455.291,237.070 455.291 C 237.138 455.291,237.054 455.152,236.883 454.981 C 235.599 453.697,236.720 451.553,238.780 451.353 C 239.080 451.324,239.943 450.930,241.050 450.317 C 241.908 449.842,244.915 446.785,244.524 446.785 C 244.452 446.785,244.532 446.625,244.702 446.430 C 245.020 446.066,245.778 444.159,246.072 442.983 C 246.494 441.298,248.346 439.862,250.450 439.591 C 250.683 439.561,251.048 439.446,251.260 439.336 C 251.472 439.226,251.873 439.039,252.152 438.921 C 253.886 438.184,254.560 437.909,255.190 437.679 C 255.580 437.537,256.172 437.302,256.506 437.158 C 257.902 436.554,259.644 436.071,261.165 435.866 C 266.884 435.097,266.735 435.136,268.550 433.880 C 271.056 432.146,272.265 429.436,272.171 425.765 C 272.040 420.625,272.033 420.688,272.910 419.139 C 273.816 417.539,273.749 417.718,274.030 416.130 C 274.311 414.542,274.025 413.085,273.109 411.448 C 271.420 408.428,272.124 406.376,274.926 406.153 C 279.363 405.799,280.281 404.876,280.259 400.796 C 280.250 399.066,280.313 398.717,280.846 397.555 C 281.175 396.839,281.589 395.934,281.767 395.544 C 282.078 394.863,282.669 394.037,283.368 393.305 C 286.701 389.818,287.632 387.364,286.612 384.753 C 286.319 384.003,286.326 383.973,286.915 383.335 C 288.031 382.128,289.433 379.949,289.094 379.949 C 289.022 379.949,289.057 379.835,289.171 379.696 C 289.705 379.047,290.069 377.052,290.342 373.266 C 290.576 370.033,290.570 370.040,295.178 367.870 C 295.883 367.538,297.389 366.208,298.059 365.326 C 298.526 364.712,298.732 363.403,298.733 361.050 C 298.734 359.734,298.828 358.482,298.942 358.268 C 299.113 357.949,301.181 356.456,301.452 356.456 C 301.926 356.456,303.455 354.351,303.920 353.059 C 304.541 351.332,304.446 332.096,303.777 324.253 C 303.350 319.238,303.177 316.529,303.086 313.418 C 302.911 307.435,302.783 307.023,300.371 304.678 C 299.472 303.804,298.736 302.987,298.735 302.863 C 298.735 302.739,298.565 302.420,298.359 302.154 C 297.251 300.728,296.566 296.087,297.269 294.772 C 297.384 294.556,297.534 294.032,297.601 293.607 C 297.668 293.182,297.919 292.407,298.158 291.885 C 299.620 288.689,299.601 284.056,298.117 282.170 C 297.900 281.893,297.722 281.560,297.722 281.428 C 297.722 281.297,297.448 280.928,297.114 280.608 C 296.780 280.287,296.506 279.945,296.506 279.847 C 296.506 279.749,296.275 279.366,295.993 278.996 C 295.710 278.625,295.442 278.153,295.397 277.946 C 295.352 277.739,295.108 277.023,294.854 276.354 C 294.137 274.466,294.210 263.641,294.951 262.104 C 295.286 261.409,295.816 261.271,299.747 260.860 C 301.696 260.656,303.473 260.429,303.696 260.354 C 306.436 259.434,307.092 258.432,306.573 255.964 C 306.254 254.448,306.018 253.842,304.495 250.633 C 303.199 247.903,303.037 247.181,302.978 243.877 C 302.918 240.512,303.434 240.120,307.196 240.668 C 312.629 241.460,316.388 240.319,318.886 237.120 C 319.261 236.640,319.314 236.027,319.182 233.684 C 319.171 233.497,319.032 233.235,318.872 233.103 C 318.713 232.970,318.582 232.736,318.582 232.583 C 318.582 232.429,318.491 232.304,318.380 232.304 C 318.268 232.304,318.177 232.187,318.177 232.044 C 318.177 231.685,317.221 230.583,313.745 226.937 C 310.491 223.523,306.670 220.909,303.494 219.922 C 303.004 219.770,301.742 219.686,300.299 219.709 C 298.752 219.735,297.365 219.634,296.350 219.424 C 295.489 219.245,294.603 219.065,294.380 219.022 C 294.157 218.980,293.792 218.863,293.570 218.764 C 292.486 218.278,291.932 218.056,291.747 218.035 C 291.635 218.023,290.770 217.756,289.823 217.442 C 288.876 217.129,287.828 216.830,287.494 216.778 C 287.159 216.725,286.522 216.588,286.077 216.472 C 285.632 216.356,285.085 216.215,284.862 216.158 C 284.638 216.102,283.681 215.932,282.734 215.781 C 281.787 215.630,280.603 215.415,280.101 215.303 C 279.225 215.107,277.651 214.835,275.954 214.587 C 275.512 214.522,274.555 214.328,273.828 214.156 C 273.101 213.984,272.324 213.800,272.101 213.747 C 271.878 213.695,271.468 213.617,271.190 213.575 C 269.971 213.391,268.152 212.245,268.152 211.660 C 268.152 211.541,268.062 211.443,267.952 211.443 C 267.842 211.443,267.696 211.101,267.628 210.684 C 267.475 209.751,266.458 209.148,264.476 208.816 C 263.579 208.666,223.449 208.587,131.802 208.554 L 0.415 208.506 0.312 209.316 M355.151 244.956 C 355.367 245.119,355.635 245.253,355.747 245.253 C 355.858 245.253,355.772 245.119,355.556 244.956 C 355.340 244.792,355.072 244.658,354.961 244.658 C 354.849 244.658,354.935 244.792,355.151 244.956 M363.747 253.975 C 363.747 254.086,363.861 254.154,364.000 254.127 C 364.139 254.099,364.228 254.197,364.198 254.344 C 364.167 254.492,364.240 254.552,364.359 254.478 C 364.512 254.384,364.506 254.258,364.339 254.058 C 364.064 253.726,363.747 253.682,363.747 253.975 M365.840 256.294 C 365.840 256.457,365.910 256.546,365.996 256.493 C 366.082 256.440,366.246 256.558,366.361 256.755 C 366.476 256.953,366.573 257.014,366.576 256.892 C 366.580 256.770,366.415 256.519,366.211 256.334 C 365.904 256.056,365.840 256.049,365.840 256.294 M366.785 257.254 C 366.785 257.310,366.967 257.566,367.190 257.823 C 367.413 258.080,367.595 258.199,367.595 258.088 C 367.595 257.977,367.413 257.721,367.190 257.519 C 366.967 257.317,366.785 257.198,366.785 257.254 M370.679 262.316 C 370.723 262.449,370.868 262.593,371.000 262.637 C 371.148 262.687,371.193 262.594,371.118 262.397 C 370.976 262.029,370.558 261.952,370.679 262.316 M378.329 272.988 C 378.329 273.129,378.466 273.381,378.633 273.548 C 379.021 273.936,379.017 273.642,378.626 273.126 C 378.460 272.905,378.329 272.845,378.329 272.988 M388.668 291.949 C 388.663 292.250,389.024 292.765,389.151 292.638 C 389.212 292.577,389.129 292.352,388.966 292.137 C 388.804 291.922,388.670 291.838,388.668 291.949 M396.315 314.481 C 396.267 314.676,396.346 315.063,396.491 315.342 C 396.675 315.696,396.754 315.745,396.757 315.506 C 396.758 315.317,396.677 315.112,396.576 315.050 C 396.475 314.987,396.440 314.754,396.498 314.531 C 396.557 314.309,396.559 314.127,396.503 314.127 C 396.447 314.127,396.363 314.286,396.315 314.481 M398.312 324.947 C 398.251 325.106,398.320 325.335,398.465 325.455 C 398.673 325.628,398.709 325.567,398.632 325.166 C 398.521 324.582,398.466 324.545,398.312 324.947 M398.620 326.583 C 398.747 326.862,398.878 327.063,398.911 327.030 C 399.034 326.907,398.731 326.076,398.563 326.076 C 398.467 326.076,398.492 326.304,398.620 326.583 M399.595 334.363 C 399.595 334.465,399.540 334.693,399.472 334.870 C 399.404 335.046,399.430 335.190,399.529 335.190 C 399.628 335.190,399.728 334.962,399.751 334.684 C 399.774 334.405,399.748 334.177,399.694 334.177 C 399.639 334.177,399.595 334.261,399.595 334.363 M265.114 421.312 C 265.114 421.914,264.705 422.239,264.231 422.015 C 263.811 421.817,263.773 421.714,263.940 421.234 C 264.130 420.689,265.114 420.754,265.114 421.312 M350.937 453.203 C 350.742 453.254,350.582 453.371,350.582 453.464 C 350.582 453.557,350.765 453.585,350.987 453.527 C 351.210 453.469,351.392 453.341,351.392 453.242 C 351.392 453.144,351.370 453.074,351.342 453.087 C 351.314 453.100,351.132 453.152,350.937 453.203 " stroke="none" fill="#1c54d4" fill-rule="evenodd"></path><path id="path3" d="M47.038 208.354 C 70.959 208.383,110.104 208.383,134.025 208.354 C 157.947 208.326,138.375 208.303,90.532 208.303 C 42.689 208.303,23.116 208.326,47.038 208.354 M259.602 208.352 C 260.190 208.393,261.102 208.393,261.627 208.351 C 262.152 208.310,261.671 208.276,260.557 208.277 C 259.443 208.277,259.013 208.311,259.602 208.352 " stroke="none" fill="#2c74ec" fill-rule="evenodd"></path><path id="path4" d="M1.165 208.351 C 1.638 208.393,2.413 208.393,2.886 208.351 C 3.359 208.308,2.972 208.273,2.025 208.273 C 1.078 208.273,0.691 208.308,1.165 208.351 M197.738 208.557 C 208.969 208.586,227.288 208.586,238.447 208.557 C 249.605 208.528,240.415 208.504,218.025 208.504 C 195.635 208.504,186.506 208.528,197.738 208.557 M269.023 209.771 C 270.115 209.808,271.847 209.808,272.871 209.771 C 273.896 209.734,273.003 209.704,270.886 209.705 C 268.770 209.705,267.931 209.735,269.023 209.771 " stroke="none" fill="#2c69e2" fill-rule="evenodd"></path></g></svg>